<svg version="1.1" id="Layer_1" xmlns="http://www.w3.org/2000/svg" xmlns:xlink="http://www.w3.org/1999/xlink" x="0px" y="0px"
	 width="100%" viewBox="0 0 225 225" enable-background="new 0 0 225 225" xml:space="preserve">
<path fill="#FEFEFE" opacity="1.000000" stroke="none" 
	d="
M158.000000,226.000000 
	C105.333336,226.000000 53.166672,226.000000 1.000007,226.000000 
	C1.000005,151.000000 1.000005,76.000015 1.000002,1.000017 
	C75.999992,1.000011 150.999985,1.000011 225.999969,1.000006 
	C225.999985,75.999985 225.999985,150.999969 226.000000,225.999969 
	C203.500000,226.000000 181.000000,226.000000 158.000000,226.000000 
M38.131756,80.120667 
	C21.028160,96.594101 13.860483,116.543297 16.838024,140.182907 
	C21.466618,176.930740 58.309258,203.781784 94.848976,197.529999 
	C113.366417,194.361771 127.515892,182.822083 144.299362,174.292694 
	C141.735413,173.640549 140.122925,173.285965 138.543411,172.819717 
	C127.468697,169.550568 118.558456,163.791306 114.985985,152.036316 
	C109.639404,134.443771 117.057922,117.350700 134.729919,110.381721 
	C145.248764,106.233589 156.813660,104.752144 167.881836,101.966766 
	C169.433838,101.576202 171.794800,100.901314 172.150970,99.820679 
	C174.623169,92.320030 169.756302,83.888802 162.012085,81.953697 
	C152.285782,79.523308 142.916168,81.465874 133.571060,84.344643 
	C130.076355,85.421196 128.577942,87.327438 128.054977,90.844421 
	C126.239861,103.051506 119.512352,112.176147 108.815338,117.806519 
	C102.140701,121.319710 94.797211,123.767159 87.514442,125.859474 
	C80.897263,127.760574 73.956360,128.534943 67.013588,129.833069 
	C67.013588,139.590988 67.068481,149.084534 66.992653,158.577011 
	C66.948387,164.118973 64.054344,169.050064 58.954578,169.803680 
	C53.058289,170.674973 46.932125,169.990707 41.018520,169.052643 
	C41.018520,138.828812 41.018520,108.604980 41.018520,77.439514 
	C39.784424,78.771095 39.266689,79.329727 38.131756,80.120667 
M208.021454,116.406769 
	C217.122742,86.031555 205.173508,53.904938 178.462372,38.066124 
	C151.839966,22.279911 121.720161,26.085100 99.671661,43.523247 
	C113.221260,46.882603 123.061798,54.390232 127.360657,68.140488 
	C138.768631,64.159637 150.193161,62.503948 161.950089,63.064095 
	C180.930801,63.968399 193.188446,73.650879 196.514816,90.845688 
	C197.297638,94.892334 197.297745,99.124245 197.338318,103.274048 
	C197.444534,114.136696 197.374130,125.001068 197.374130,135.864761 
	C197.893555,136.024216 198.412979,136.183670 198.932404,136.343124 
	C201.900528,129.957626 204.868652,123.572128 208.021454,116.406769 
M90.509087,61.708897 
	C82.434052,59.226856 74.631424,59.775928 67.362503,63.237003 
	C67.362503,80.171524 67.362503,96.532715 67.362503,113.094788 
	C70.010223,112.671783 72.306885,112.374748 74.575027,111.931671 
	C97.054543,107.540367 105.640869,96.225220 102.105103,75.668091 
	C100.982018,69.138443 97.679932,64.305420 90.509087,61.708897 
M172.351822,124.524773 
	C172.351822,121.745377 172.351822,118.965981 172.351822,115.752686 
	C162.792755,116.695114 153.790283,117.850655 146.529678,123.509979 
	C143.373322,125.970230 140.466614,130.126923 139.658432,133.977386 
	C136.689194,148.123734 140.700653,157.083542 154.609421,158.803497 
	C159.125793,159.362000 163.843613,158.367523 168.462250,157.995926 
	C171.504257,157.751190 172.494766,156.084061 172.425064,152.982864 
	C172.219391,143.833008 172.351868,134.675568 172.351822,124.524773 
z"/>
<path fill="#039381" opacity="1.000000" stroke="none" 
	d="
M40.905766,169.981827 
	C46.932125,169.990707 53.058289,170.674973 58.954578,169.803680 
	C64.054344,169.050064 66.948387,164.118973 66.992653,158.577011 
	C67.068481,149.084534 67.013588,139.590988 67.013588,129.833069 
	C73.956360,128.534943 80.897263,127.760574 87.514442,125.859474 
	C94.797211,123.767159 102.140701,121.319710 108.815338,117.806519 
	C119.512352,112.176147 126.239861,103.051506 128.054977,90.844421 
	C128.577942,87.327438 130.076355,85.421196 133.571060,84.344643 
	C142.916168,81.465874 152.285782,79.523308 162.012085,81.953697 
	C169.756302,83.888802 174.623169,92.320030 172.150970,99.820679 
	C171.794800,100.901314 169.433838,101.576202 167.881836,101.966766 
	C156.813660,104.752144 145.248764,106.233589 134.729919,110.381721 
	C117.057922,117.350700 109.639404,134.443771 114.985985,152.036316 
	C118.558456,163.791306 127.468697,169.550568 138.543411,172.819717 
	C140.122925,173.285965 141.735413,173.640549 144.299362,174.292694 
	C127.515892,182.822083 113.366417,194.361771 94.848976,197.529999 
	C58.309258,203.781784 21.466618,176.930740 16.838024,140.182907 
	C13.860483,116.543297 21.028160,96.594101 38.778824,80.275497 
	C39.617165,82.223297 39.972569,84.016037 39.975033,85.809273 
	C40.010963,111.956558 39.980797,138.103943 40.038754,164.251144 
	C40.042988,166.162018 40.603748,168.071625 40.905766,169.981827 
z"/>
<path fill="#059482" opacity="1.000000" stroke="none" 
	d="
M207.929108,116.796700 
	C204.868652,123.572128 201.900528,129.957626 198.932404,136.343124 
	C198.412979,136.183670 197.893555,136.024216 197.374130,135.864761 
	C197.374130,125.001068 197.444534,114.136696 197.338318,103.274048 
	C197.297745,99.124245 197.297638,94.892334 196.514816,90.845688 
	C193.188446,73.650879 180.930801,63.968399 161.950089,63.064095 
	C150.193161,62.503948 138.768631,64.159637 127.360657,68.140488 
	C123.061798,54.390232 113.221260,46.882603 99.671661,43.523247 
	C121.720161,26.085100 151.839966,22.279911 178.462372,38.066124 
	C205.173508,53.904938 217.122742,86.031555 207.929108,116.796700 
z"/>
<path fill="#049382" opacity="1.000000" stroke="none" 
	d="
M90.887833,61.824959 
	C97.679932,64.305420 100.982018,69.138443 102.105103,75.668091 
	C105.640869,96.225220 97.054543,107.540367 74.575027,111.931671 
	C72.306885,112.374748 70.010223,112.671783 67.362503,113.094788 
	C67.362503,96.532715 67.362503,80.171524 67.362503,63.237003 
	C74.631424,59.775928 82.434052,59.226856 90.887833,61.824959 
z"/>
<path fill="#029381" opacity="1.000000" stroke="none" 
	d="
M172.351929,125.022934 
	C172.351868,134.675568 172.219391,143.833008 172.425064,152.982864 
	C172.494766,156.084061 171.504257,157.751190 168.462250,157.995926 
	C163.843613,158.367523 159.125793,159.362000 154.609421,158.803497 
	C140.700653,157.083542 136.689194,148.123734 139.658432,133.977386 
	C140.466614,130.126923 143.373322,125.970230 146.529678,123.509979 
	C153.790283,117.850655 162.792755,116.695114 172.351822,115.752686 
	C172.351822,118.965981 172.351822,121.745377 172.351929,125.022934 
z"/>
<path fill="#008B77" opacity="1.000000" stroke="none" 
	d="
M40.962143,169.517242 
	C40.603748,168.071625 40.042988,166.162018 40.038754,164.251144 
	C39.980797,138.103943 40.010963,111.956558 39.975033,85.809273 
	C39.972569,84.016037 39.617165,82.223297 39.087425,80.159332 
	C39.266689,79.329727 39.784424,78.771095 41.018520,77.439514 
	C41.018520,108.604980 41.018520,138.828812 40.962143,169.517242 
z"/>
</svg>