<svg width="192.756" height="192.741" xmlns="http://www.w3.org/2000/svg" xmlns:svg="http://www.w3.org/2000/svg">
 <g class="layer">
  <title>Layer 1</title>
  <path d="m0,192.74l192.76,0l0,-192.74l-192.76,0l0,192.74z" fill="#fff" id="svg_1"/>
  <path clip-rule="evenodd" d="m184.25,172.27l-175.75,0l0,-151.78l175.75,0l0,151.78zm-114.51,-99.79c-29.27,19.39 -29.27,85.97 38.41,58.17c56.7,-31.1 43.53,-61.1 43.53,-61.1s-11.71,-54.87 -122.92,-4.02l40.98,6.95z" fill="#dadada" fill-rule="evenodd" id="svg_2"/>
  <path clip-rule="evenodd" d="m50.72,63.7c17.19,-7.68 71.33,-27.07 90.72,2.19c9.15,18.3 -10.6,37.32 -10.6,37.32c21.21,-36.22 -76.83,-35.49 -80.12,-39.51z" fill="#1e71b8" fill-rule="evenodd" id="svg_3"/>
  <path clip-rule="evenodd" d="m67.91,84.92c-36.22,59.99 42.07,43.17 53.78,25.24c-10.98,-10.97 -63.29,8.05 -53.78,-25.24z" fill="#fade2f" fill-rule="evenodd" id="svg_4"/>
  <path clip-rule="evenodd" d="m76.6,135.13l-0.19,-12.74l11.98,-2.85l0.19,11.79s2.05,1.66 3.99,-0.19l-0.19,-4.94l12.18,-3.24s0,5.33 -0.19,7.04c-0.19,1.71 -2.29,3.42 -2.29,3.42s-33.28,8.75 -35.94,9.7c-2.67,0.95 -4.95,-1.33 -4.95,-1.33l-0.76,-5.7l10.61,-3.48l0.42,-0.14l0,4.8c0,0 4.9,0.86 5.14,-2.14z" fill="#1e71b8" fill-rule="evenodd" id="svg_5"/>
  <path clip-rule="evenodd" d="m120.77,121.15l-0.28,-3.56l-10.99,3.71l0,18.97s-1,1.28 -4.7,1.28l-0.15,-4.42l-11.98,3s-0.29,4.13 0,6.56c16.4,2.14 27.96,-8.85 27.96,-8.85s0.14,-5.56 0.14,-11.12c10.84,-0.72 15.69,-7.14 15.69,-7.14l-0.14,-6.7l-10.84,3.85l-0.14,4.28c0,0 -3.86,1.43 -4.57,0.14z" fill="#1e71b8" fill-rule="evenodd" id="svg_6"/>
  <path clip-rule="evenodd" d="m133.75,128.43l0,3.14l-8.27,2.85l0,-3.42l8.27,-2.57zm-52.49,15.12l0,3.14l-8.28,2.85l0,-3.42l8.28,-2.57zm9.7,-3.14l0,3.14l-8.28,2.85l0,-3.42l8.28,-2.57z" fill="#1e71b8" fill-rule="evenodd" id="svg_7"/>
  <path clip-rule="evenodd" d="m65.23,160.8l-0.7,-1.36c-0.14,-0.31 -0.25,-0.59 -0.35,-0.86l-0.03,0a8.37,8.37 0 0 1 -0.35,0.86l-0.69,1.36l2.12,0zm43.55,-0.52l0,-0.02c0,-0.01 0,-0.02 0,-0.03l0,-0.02c0.01,-0.48 0.12,-0.89 0.34,-1.22c0.17,-0.26 0.4,-0.49 0.69,-0.69c0.3,-0.21 0.62,-0.36 0.97,-0.45c0.46,-0.14 1,-0.2 1.61,-0.2c1.09,0 1.97,0.23 2.63,0.69c0.66,0.46 0.99,1.1 0.99,1.92c0,0.81 -0.32,1.45 -0.98,1.9c-0.65,0.46 -1.53,0.69 -2.62,0.69c-1.11,0 -2,-0.23 -2.65,-0.68c-0.66,-0.46 -0.98,-1.09 -0.98,-1.89zm-6.63,2.48l0,-5.02l2.41,0c0.92,0 1.51,0.02 1.79,0.07a2.16,2.16 0 0 1 1.07,0.49c0.29,0.26 0.44,0.58 0.44,0.99c0,0.31 -0.09,0.56 -0.25,0.78s-0.38,0.37 -0.64,0.49s-0.52,0.2 -0.78,0.24c-0.36,0.05 -0.88,0.07 -1.56,0.07l-0.98,0l0,1.89l-1.5,0l0,0zm-17.62,-4.65a13.94,13.94 0 0 1 1.74,-0.1c0.97,0 1.61,0.12 2.05,0.39c0.34,0.2 0.55,0.52 0.55,0.9c0,0.61 -0.59,1.02 -1.32,1.19l0,0.02c0.53,0.13 0.85,0.47 1.03,0.96c0.23,0.66 0.39,1.11 0.53,1.29l-0.94,0c-0.11,-0.13 -0.27,-0.54 -0.46,-1.13c-0.21,-0.65 -0.59,-0.89 -1.41,-0.91l-0.86,0l0,2.04l-0.91,0l0,-4.65zm-21.6,3.17l-0.73,1.48l-0.94,0l2.39,-4.72l1.09,0l2.4,4.72l-0.97,0l-0.75,-1.48l-2.49,0zm67.58,1.48l0,-5.02l5.53,0l0,0.85l-4.03,0l0,1.11l3.75,0l0,0.85l-3.75,0l0,1.36l4.18,0l0,0.85l-5.68,0l0,0zm-4.68,0l0,-4.17l-2.2,0l0,-0.85l5.89,0l0,0.85l-2.19,0l0,4.17l-1.5,0zm-9.02,-1.64l1.46,-0.09c0.09,0.33 0.27,0.57 0.54,0.72c0.27,0.15 0.63,0.23 1.1,0.23c0.48,0 0.85,-0.07 1.09,-0.2c0.25,-0.14 0.37,-0.3 0.37,-0.48a0.37,0.37 0 0 0 -0.15,-0.3c-0.1,-0.08 -0.28,-0.16 -0.54,-0.22a26.74,26.74 0 0 0 -1.2,-0.22c-0.81,-0.13 -1.37,-0.3 -1.7,-0.5c-0.46,-0.27 -0.69,-0.61 -0.69,-1.01c0,-0.26 0.11,-0.5 0.33,-0.72c0.21,-0.22 0.52,-0.39 0.92,-0.51c0.41,-0.12 0.9,-0.18 1.47,-0.18c0.93,0 1.63,0.14 2.11,0.42c0.47,0.28 0.72,0.65 0.74,1.12l-1.5,0.03c-0.06,-0.26 -0.2,-0.44 -0.41,-0.56c-0.21,-0.11 -0.53,-0.17 -0.95,-0.17c-0.44,0 -0.78,0.06 -1.02,0.18c-0.16,0.08 -0.24,0.19 -0.24,0.32c0,0.12 0.07,0.22 0.22,0.3c0.19,0.11 0.65,0.22 1.38,0.34c0.73,0.12 1.27,0.24 1.62,0.36s0.62,0.3 0.82,0.52s0.29,0.48 0.29,0.8c0,0.28 -0.11,0.55 -0.35,0.81s-0.57,0.43 -1.01,0.56c-0.43,0.12 -0.98,0.18 -1.62,0.18c-0.94,0 -1.67,-0.14 -2.17,-0.44c-0.51,-0.29 -0.81,-0.72 -0.91,-1.29zm-6.48,-0.87c0,0.56 0.19,1 0.58,1.29s0.89,0.44 1.49,0.44s1.1,-0.15 1.48,-0.44c0.39,-0.29 0.58,-0.73 0.58,-1.31c0,-0.57 -0.18,-1 -0.56,-1.29s-0.87,-0.42 -1.5,-0.42c-0.62,0 -1.12,0.14 -1.5,0.43s-0.57,0.72 -0.57,1.3zm-6.68,-1.66l0,1.43l0.82,0c0.59,0 0.99,-0.03 1.19,-0.08a1.06,1.06 0 0 0 0.47,-0.25a0.55,0.55 0 0 0 -0.07,-0.84a1.27,1.27 0 0 0 -0.6,-0.23c-0.18,-0.02 -0.54,-0.03 -1.09,-0.03l-0.72,0zm-7.39,1.96l-2.72,0l0,1.7l3.04,0l0,0.51l-3.96,0l0,-4.72l3.8,0l0,0.51l-2.88,0l0,1.49l2.72,0l0,0.51zm-6.13,-2.51l0.92,0l0,4.72l-0.92,0l0,-4.72zm0.92,0l-0.92,0l0.92,0zm-5.61,2.21l0.93,0c0.97,0 1.58,-0.35 1.58,-0.89c0,-0.61 -0.65,-0.88 -1.61,-0.88c-0.44,0 -0.74,0.03 -0.9,0.06l0,1.71zm-2.41,0.3l-2.71,0l0,1.7l3.04,0l0,0.51l-3.96,0l0,-4.72l3.8,0l0,0.51l-2.88,0l0,1.49l2.71,0l0,0.51zm-5,2c-0.4,0.11 -1.22,0.26 -2.16,0.26c-1.07,0 -1.94,-0.18 -2.63,-0.62c-0.6,-0.39 -0.98,-1.02 -0.98,-1.76c0,-1.41 1.45,-2.44 3.81,-2.44c0.81,0 1.45,0.12 1.76,0.22l-0.23,0.5c-0.38,-0.12 -0.85,-0.21 -1.56,-0.21c-1.7,0 -2.82,0.72 -2.82,1.9c0,1.2 1.06,1.91 2.71,1.91c0.59,0 1,-0.06 1.21,-0.13l0,-1.41l-1.42,0l0,-0.49l2.31,0l0,2.27l0,0zm-9.87,-4.51l0.91,0l0,4.21l3,0l0,0.51l-3.91,0l0,-4.72l0,0z" fill="#3f7abd" fill-rule="evenodd" id="svg_8"/>
 </g>
</svg>